{"title":"Bramman (2014) DVDScr Untouched","uid":9651807,"size":1018011648,"categoryP":"video","categoryS":"movies","magnet":"?xt=urn:btih:29150bff18aa25b3a6de1dbef2dc536bacb4180a&amp;dn=Bramman+%282014%29+DVDScr+Untouched&amp;tr=udp%3A%2F%2Ftracker.openbittorrent.com%3A80&amp;tr=udp%3A%2F%2Fopen.demonii.com%3A1337&amp;tr=udp%3A%2F%2Ftracker.coppersurfer.tk%3A6969&amp;tr=udp%3A%2F%2Fexodus.desync.com%3A6969","seeders":1,"leechers":0,"uploader":"TeamXDN","files":-1,"time":1393089351,"description":"Bramman (2014) DVDScr Untouched \n\normat                                   : MPEG-PS\nFile size                                : 971 MiB\nDuration                                 : 2h 19mn\nOverall bit rate mode                    : Variable\nOverall bit rate                         : 970 Kbps\nWriting library                          : encoded by TMPGEnc Authoring Works 4 Version. 4.0.11.39\n\nVideo\nID                                       : 224 (0xE0)\nFormat                                   : MPEG Video\nFormat version                           : Version 2\nFormat profile                           : Main@Main\nFormat settings, BVOP                    : Yes\nFormat settings, Matrix                  : Custom\nFormat settings, GOP                     : Variable\nDuration                                 : 2h 19mn\nBit rate mode                            : Variable\nBit rate                                 : 887 Kbps\nMaximum bit rate                         : 2 000 Kbps\nWidth                                    : 352 pixels\nHeight                                   : 240 pixels\nDisplay aspect ratio                     : 4:3\nFrame rate                               : 29.970 fps\nStandard                                 : NTSC\nColor space                              : YUV\nChroma subsampling                       : 4:2:0\nBit depth                                : 8 bits\nScan type                                : Progressive\nCompression mode                         : Lossy\nBits/(Pixel*Frame)                       : 0.350\nTime code of first frame                 : 00:00:00:00\nTime code source                         : Group of pictures header\nStream size                              : 887 MiB (91%)\nSource encoded stream size               : encoded by TMPGEnc Authoring Works 4 Version. 4.0.11.39\nWriting library                          : TMPGEnc Authoring Works 4 Version. 4.0.11.39\nColor primaries                          : BT.601 NTSC\nTransfer characteristics                 : BT.601\nMatrix coefficients                      : BT.601\n\nAudio\nID                                       : 192 (0xC0)\nFormat                                   : MPEG Audio\nFormat version                           : Version 1\nFormat profile                           : Layer 2\nDuration                                 : 2h 19mn\nBit rate mode                            : Constant\nBit rate                                 : 64.0 Kbps\nChannel(s)                               : 2 channels\nSampling rate                            : 48.0 KHz\nCompression mode                         : Lossy\nStream size                              : 64.1 MiB (7%)","torrent":{"xt":"urn:btih:29150bff18aa25b3a6de1dbef2dc536bacb4180a","amp;dn":"Bramman+%282014%29+DVDScr+Untouched","amp;tr":["udp%3A%2F%2Ftracker.openbittorrent.com%3A80","udp%3A%2F%2Fopen.demonii.com%3A1337","udp%3A%2F%2Ftracker.coppersurfer.tk%3A6969","udp%3A%2F%2Fexodus.desync.com%3A6969"],"infoHash":"29150bff18aa25b3a6de1dbef2dc536bacb4180a","infoHashBuffer":{"type":"Buffer","data":[41,21,11,255,24,170,37,179,166,222,29,190,242,220,83,107,172,180,24,10]},"announce":[],"urlList":[]}}